<mxfile host="app.diagrams.net" modified="2020-08-30T12:39:47.499Z" agent="5.0 (Windows)" etag="hMKgTh31T_g-dIOG17o-" version="13.6.5" type="github" pages="2">
  <diagram id="0_YOr1Zk8zNWssAcoRDT" name="Page-1">
    <mxGraphModel dx="2827" dy="1191" grid="1" gridSize="10" guides="1" tooltips="1" connect="1" arrows="1" fold="1" page="1" pageScale="1" pageWidth="827" pageHeight="1169" math="0" shadow="0" extFonts="century gothic^https://fonts.googleapis.com/css?family=century+gothic">
      <root>
        <mxCell id="0" />
        <mxCell id="1" parent="0" />
        <mxCell id="-iTeWCBVYYt1tYyRLS01-26" value="" style="rounded=0;whiteSpace=wrap;html=1;fillColor=#bac8d3;strokeColor=none;fontFamily=century gothic;" parent="1" vertex="1">
          <mxGeometry x="-280" y="460" width="120" height="560" as="geometry" />
        </mxCell>
        <mxCell id="-iTeWCBVYYt1tYyRLS01-95" style="edgeStyle=orthogonalEdgeStyle;rounded=1;orthogonalLoop=1;jettySize=auto;html=1;fontFamily=century gothic;fontSize=11;jumpStyle=gap;" parent="1" source="-iTeWCBVYYt1tYyRLS01-75" target="-iTeWCBVYYt1tYyRLS01-19" edge="1">
          <mxGeometry relative="1" as="geometry" />
        </mxCell>
        <mxCell id="-iTeWCBVYYt1tYyRLS01-25" value="" style="rounded=0;whiteSpace=wrap;html=1;fillColor=#bac8d3;strokeColor=none;fontFamily=century gothic;" parent="1" vertex="1">
          <mxGeometry x="-280" y="20" width="120" height="400" as="geometry" />
        </mxCell>
        <mxCell id="-iTeWCBVYYt1tYyRLS01-96" style="edgeStyle=orthogonalEdgeStyle;rounded=1;orthogonalLoop=1;jettySize=auto;html=1;fontFamily=century gothic;fontSize=11;jumpStyle=gap;" parent="1" source="-iTeWCBVYYt1tYyRLS01-68" target="-iTeWCBVYYt1tYyRLS01-8" edge="1">
          <mxGeometry relative="1" as="geometry">
            <Array as="points">
              <mxPoint x="-340" y="380" />
              <mxPoint x="-340" y="380" />
            </Array>
          </mxGeometry>
        </mxCell>
        <mxCell id="-iTeWCBVYYt1tYyRLS01-46" value="" style="whiteSpace=wrap;html=1;aspect=fixed;fillColor=#bac8d3;strokeColor=none;fontFamily=century gothic;" parent="1" vertex="1">
          <mxGeometry x="400" y="690" width="120" height="120" as="geometry" />
        </mxCell>
        <mxCell id="-iTeWCBVYYt1tYyRLS01-28" value="" style="rounded=0;whiteSpace=wrap;html=1;fillColor=#bac8d3;strokeColor=none;fontFamily=century gothic;" parent="1" vertex="1">
          <mxGeometry x="-280" y="1060" width="120" height="400" as="geometry" />
        </mxCell>
        <mxCell id="02abt6Ju4ip0T6dvX8xv-6" style="edgeStyle=orthogonalEdgeStyle;rounded=1;orthogonalLoop=1;jettySize=auto;html=1;" parent="1" source="-iTeWCBVYYt1tYyRLS01-1" target="-iTeWCBVYYt1tYyRLS01-24" edge="1">
          <mxGeometry relative="1" as="geometry">
            <Array as="points">
              <mxPoint x="10" y="300" />
              <mxPoint x="10" y="230" />
            </Array>
          </mxGeometry>
        </mxCell>
        <mxCell id="-iTeWCBVYYt1tYyRLS01-1" value="&lt;div&gt;Ground Pork&lt;/div&gt;" style="rounded=0;whiteSpace=wrap;html=1;fontFamily=century gothic;" parent="1" vertex="1">
          <mxGeometry x="-80" y="280" width="80" height="40" as="geometry" />
        </mxCell>
        <mxCell id="02abt6Ju4ip0T6dvX8xv-5" value="Mixing Bowl" style="edgeStyle=orthogonalEdgeStyle;rounded=1;orthogonalLoop=1;jettySize=auto;html=1;fontFamily=century gothic;" parent="1" source="-iTeWCBVYYt1tYyRLS01-3" target="-iTeWCBVYYt1tYyRLS01-24" edge="1">
          <mxGeometry x="0.8095" relative="1" as="geometry">
            <mxPoint as="offset" />
          </mxGeometry>
        </mxCell>
        <mxCell id="-iTeWCBVYYt1tYyRLS01-3" value="&lt;div&gt;Black Pepper&lt;/div&gt;" style="rounded=0;whiteSpace=wrap;html=1;fontFamily=century gothic;" parent="1" vertex="1">
          <mxGeometry x="-80" y="200" width="80" height="40" as="geometry" />
        </mxCell>
        <mxCell id="-iTeWCBVYYt1tYyRLS01-89" style="edgeStyle=orthogonalEdgeStyle;rounded=1;orthogonalLoop=1;jettySize=auto;html=1;fontFamily=century gothic;fontSize=11;jumpStyle=gap;" parent="1" source="-iTeWCBVYYt1tYyRLS01-8" target="-iTeWCBVYYt1tYyRLS01-11" edge="1">
          <mxGeometry relative="1" as="geometry">
            <Array as="points">
              <mxPoint x="20" y="390" />
              <mxPoint x="20" y="650" />
            </Array>
          </mxGeometry>
        </mxCell>
        <mxCell id="02abt6Ju4ip0T6dvX8xv-7" style="edgeStyle=orthogonalEdgeStyle;rounded=1;orthogonalLoop=1;jettySize=auto;html=1;entryX=0;entryY=1;entryDx=0;entryDy=0;" parent="1" source="-iTeWCBVYYt1tYyRLS01-8" target="-iTeWCBVYYt1tYyRLS01-24" edge="1">
          <mxGeometry relative="1" as="geometry">
            <Array as="points">
              <mxPoint x="20" y="380" />
              <mxPoint x="20" y="240" />
            </Array>
          </mxGeometry>
        </mxCell>
        <mxCell id="-iTeWCBVYYt1tYyRLS01-8" value="Salt" style="rounded=1;whiteSpace=wrap;html=1;arcSize=50;fillColor=#647687;strokeColor=#314354;fontColor=#ffffff;fontFamily=century gothic;" parent="1" vertex="1">
          <mxGeometry x="-260" y="360" width="80" height="40" as="geometry" />
        </mxCell>
        <mxCell id="-iTeWCBVYYt1tYyRLS01-38" style="edgeStyle=orthogonalEdgeStyle;rounded=1;orthogonalLoop=1;jettySize=auto;html=1;fontFamily=century gothic;jumpStyle=gap;" parent="1" source="-iTeWCBVYYt1tYyRLS01-9" target="-iTeWCBVYYt1tYyRLS01-34" edge="1">
          <mxGeometry relative="1" as="geometry">
            <Array as="points">
              <mxPoint x="220" y="500" />
              <mxPoint x="220" y="720" />
            </Array>
          </mxGeometry>
        </mxCell>
        <mxCell id="-iTeWCBVYYt1tYyRLS01-9" value="Flour" style="rounded=0;whiteSpace=wrap;html=1;fillColor=#647687;strokeColor=#314354;fontColor=#ffffff;fontFamily=century gothic;" parent="1" vertex="1">
          <mxGeometry x="-260" y="480" width="80" height="40" as="geometry" />
        </mxCell>
        <mxCell id="-iTeWCBVYYt1tYyRLS01-37" style="edgeStyle=orthogonalEdgeStyle;rounded=1;orthogonalLoop=1;jettySize=auto;html=1;fontFamily=century gothic;jumpStyle=gap;" parent="1" source="-iTeWCBVYYt1tYyRLS01-10" target="-iTeWCBVYYt1tYyRLS01-34" edge="1">
          <mxGeometry relative="1" as="geometry">
            <Array as="points">
              <mxPoint x="210" y="580" />
              <mxPoint x="210" y="720" />
            </Array>
          </mxGeometry>
        </mxCell>
        <mxCell id="-iTeWCBVYYt1tYyRLS01-10" value="Egg" style="rounded=0;whiteSpace=wrap;html=1;fillColor=#647687;strokeColor=#314354;fontColor=#ffffff;fontFamily=century gothic;" parent="1" vertex="1">
          <mxGeometry x="-260" y="560" width="80" height="40" as="geometry" />
        </mxCell>
        <mxCell id="-iTeWCBVYYt1tYyRLS01-36" style="edgeStyle=orthogonalEdgeStyle;rounded=1;orthogonalLoop=1;jettySize=auto;html=1;fontFamily=century gothic;jumpStyle=gap;" parent="1" source="-iTeWCBVYYt1tYyRLS01-11" target="-iTeWCBVYYt1tYyRLS01-34" edge="1">
          <mxGeometry relative="1" as="geometry">
            <Array as="points">
              <mxPoint x="200" y="660" />
              <mxPoint x="200" y="730" />
            </Array>
          </mxGeometry>
        </mxCell>
        <mxCell id="-iTeWCBVYYt1tYyRLS01-11" value="Butter" style="rounded=0;whiteSpace=wrap;html=1;fontFamily=century gothic;" parent="1" vertex="1">
          <mxGeometry x="80" y="640" width="80" height="40" as="geometry" />
        </mxCell>
        <mxCell id="-iTeWCBVYYt1tYyRLS01-35" value="Bakeware" style="edgeStyle=orthogonalEdgeStyle;rounded=1;orthogonalLoop=1;jettySize=auto;html=1;fontFamily=century gothic;jumpStyle=gap;" parent="1" source="-iTeWCBVYYt1tYyRLS01-12" target="-iTeWCBVYYt1tYyRLS01-34" edge="1">
          <mxGeometry x="0.6667" relative="1" as="geometry">
            <mxPoint as="offset" />
          </mxGeometry>
        </mxCell>
        <mxCell id="-iTeWCBVYYt1tYyRLS01-88" value="Saucepan" style="edgeStyle=orthogonalEdgeStyle;rounded=1;orthogonalLoop=1;jettySize=auto;html=1;fontFamily=century gothic;fontSize=11;jumpStyle=gap;" parent="1" source="-iTeWCBVYYt1tYyRLS01-12" target="-iTeWCBVYYt1tYyRLS01-11" edge="1">
          <mxGeometry x="0.2" relative="1" as="geometry">
            <Array as="points">
              <mxPoint x="20" y="730" />
              <mxPoint x="20" y="660" />
            </Array>
            <mxPoint as="offset" />
          </mxGeometry>
        </mxCell>
        <mxCell id="-iTeWCBVYYt1tYyRLS01-12" value="Heavy Cream" style="rounded=0;whiteSpace=wrap;html=1;fontFamily=century gothic;" parent="1" vertex="1">
          <mxGeometry x="-80" y="720" width="80" height="40" as="geometry" />
        </mxCell>
        <mxCell id="-iTeWCBVYYt1tYyRLS01-39" style="edgeStyle=orthogonalEdgeStyle;rounded=1;orthogonalLoop=1;jettySize=auto;html=1;fontFamily=century gothic;jumpStyle=gap;" parent="1" source="-iTeWCBVYYt1tYyRLS01-13" target="-iTeWCBVYYt1tYyRLS01-34" edge="1">
          <mxGeometry relative="1" as="geometry">
            <Array as="points">
              <mxPoint x="200" y="820" />
              <mxPoint x="200" y="750" />
            </Array>
          </mxGeometry>
        </mxCell>
        <mxCell id="-iTeWCBVYYt1tYyRLS01-87" value="Mixing Bowl" style="edgeStyle=orthogonalEdgeStyle;rounded=1;orthogonalLoop=1;jettySize=auto;html=1;fontFamily=century gothic;fontSize=11;jumpStyle=gap;" parent="1" source="-iTeWCBVYYt1tYyRLS01-13" target="-iTeWCBVYYt1tYyRLS01-12" edge="1">
          <mxGeometry relative="1" as="geometry">
            <Array as="points">
              <mxPoint x="-120" y="810" />
              <mxPoint x="-120" y="740" />
            </Array>
          </mxGeometry>
        </mxCell>
        <mxCell id="-iTeWCBVYYt1tYyRLS01-13" value="Soy Milk" style="rounded=0;whiteSpace=wrap;html=1;fillColor=#647687;strokeColor=#314354;fontColor=#ffffff;fontFamily=century gothic;" parent="1" vertex="1">
          <mxGeometry x="-260" y="800" width="80" height="40" as="geometry" />
        </mxCell>
        <mxCell id="-iTeWCBVYYt1tYyRLS01-41" style="edgeStyle=orthogonalEdgeStyle;rounded=1;orthogonalLoop=1;jettySize=auto;html=1;fontFamily=century gothic;jumpStyle=gap;" parent="1" source="-iTeWCBVYYt1tYyRLS01-91" target="-iTeWCBVYYt1tYyRLS01-34" edge="1">
          <mxGeometry relative="1" as="geometry">
            <mxPoint x="-180" y="980" as="sourcePoint" />
            <Array as="points">
              <mxPoint x="220" y="980" />
              <mxPoint x="220" y="760" />
            </Array>
          </mxGeometry>
        </mxCell>
        <mxCell id="-iTeWCBVYYt1tYyRLS01-44" style="edgeStyle=orthogonalEdgeStyle;rounded=1;orthogonalLoop=1;jettySize=auto;html=1;fontFamily=century gothic;jumpStyle=gap;" parent="1" source="-iTeWCBVYYt1tYyRLS01-16" target="-iTeWCBVYYt1tYyRLS01-42" edge="1">
          <mxGeometry relative="1" as="geometry">
            <Array as="points">
              <mxPoint x="60" y="1100" />
              <mxPoint x="60" y="1100" />
            </Array>
          </mxGeometry>
        </mxCell>
        <mxCell id="-iTeWCBVYYt1tYyRLS01-16" value="Cooking Oil" style="rounded=0;whiteSpace=wrap;html=1;fillColor=#647687;strokeColor=#314354;fontColor=#ffffff;fontFamily=century gothic;" parent="1" vertex="1">
          <mxGeometry x="-260" y="1080" width="80" height="40" as="geometry" />
        </mxCell>
        <mxCell id="-iTeWCBVYYt1tYyRLS01-40" style="edgeStyle=orthogonalEdgeStyle;rounded=1;orthogonalLoop=1;jettySize=auto;html=1;fontFamily=century gothic;jumpStyle=gap;" parent="1" source="-iTeWCBVYYt1tYyRLS01-19" target="-iTeWCBVYYt1tYyRLS01-34" edge="1">
          <mxGeometry relative="1" as="geometry">
            <Array as="points">
              <mxPoint x="210" y="900" />
              <mxPoint x="210" y="760" />
            </Array>
          </mxGeometry>
        </mxCell>
        <mxCell id="-iTeWCBVYYt1tYyRLS01-19" value="Water" style="rounded=1;whiteSpace=wrap;html=1;arcSize=50;fillColor=#647687;strokeColor=#314354;fontColor=#ffffff;fontFamily=century gothic;" parent="1" vertex="1">
          <mxGeometry x="-260" y="880" width="80" height="40" as="geometry" />
        </mxCell>
        <mxCell id="-iTeWCBVYYt1tYyRLS01-43" value="Skillet" style="edgeStyle=orthogonalEdgeStyle;rounded=1;orthogonalLoop=1;jettySize=auto;html=1;fontFamily=century gothic;jumpStyle=gap;" parent="1" source="-iTeWCBVYYt1tYyRLS01-20" target="-iTeWCBVYYt1tYyRLS01-42" edge="1">
          <mxGeometry x="-0.551" y="10" relative="1" as="geometry">
            <Array as="points">
              <mxPoint x="-150" y="1180" />
              <mxPoint x="-150" y="1110" />
            </Array>
            <mxPoint x="-1" as="offset" />
          </mxGeometry>
        </mxCell>
        <mxCell id="-iTeWCBVYYt1tYyRLS01-20" value="Onion" style="rounded=1;whiteSpace=wrap;html=1;arcSize=50;fillColor=#647687;strokeColor=#314354;fontColor=#ffffff;fontFamily=century gothic;" parent="1" vertex="1">
          <mxGeometry x="-260" y="1160" width="80" height="40" as="geometry" />
        </mxCell>
        <mxCell id="-iTeWCBVYYt1tYyRLS01-52" style="edgeStyle=orthogonalEdgeStyle;rounded=1;orthogonalLoop=1;jettySize=auto;html=1;fontFamily=century gothic;fontSize=15;jumpStyle=gap;" parent="1" source="-iTeWCBVYYt1tYyRLS01-21" target="-iTeWCBVYYt1tYyRLS01-48" edge="1">
          <mxGeometry relative="1" as="geometry">
            <Array as="points">
              <mxPoint x="370" y="1260" />
              <mxPoint x="370" y="760" />
            </Array>
          </mxGeometry>
        </mxCell>
        <mxCell id="-iTeWCBVYYt1tYyRLS01-21" value="Avocado" style="rounded=1;whiteSpace=wrap;html=1;arcSize=50;fillColor=#647687;strokeColor=#314354;fontColor=#ffffff;fontFamily=century gothic;" parent="1" vertex="1">
          <mxGeometry x="-260" y="1240" width="80" height="40" as="geometry" />
        </mxCell>
        <mxCell id="-iTeWCBVYYt1tYyRLS01-53" style="edgeStyle=orthogonalEdgeStyle;rounded=1;orthogonalLoop=1;jettySize=auto;html=1;fontFamily=century gothic;fontSize=15;jumpStyle=gap;" parent="1" source="-iTeWCBVYYt1tYyRLS01-22" target="-iTeWCBVYYt1tYyRLS01-48" edge="1">
          <mxGeometry relative="1" as="geometry">
            <Array as="points">
              <mxPoint x="380" y="1340" />
              <mxPoint x="380" y="770" />
            </Array>
          </mxGeometry>
        </mxCell>
        <mxCell id="-iTeWCBVYYt1tYyRLS01-22" value="Tomato" style="rounded=1;whiteSpace=wrap;html=1;arcSize=50;fillColor=#647687;strokeColor=#314354;fontColor=#ffffff;fontFamily=century gothic;" parent="1" vertex="1">
          <mxGeometry x="-260" y="1320" width="80" height="40" as="geometry" />
        </mxCell>
        <mxCell id="-iTeWCBVYYt1tYyRLS01-54" style="edgeStyle=orthogonalEdgeStyle;rounded=1;orthogonalLoop=1;jettySize=auto;html=1;fontFamily=century gothic;fontSize=15;jumpStyle=gap;" parent="1" source="-iTeWCBVYYt1tYyRLS01-23" target="-iTeWCBVYYt1tYyRLS01-48" edge="1">
          <mxGeometry relative="1" as="geometry">
            <Array as="points">
              <mxPoint x="390" y="1420" />
              <mxPoint x="390" y="780" />
            </Array>
          </mxGeometry>
        </mxCell>
        <mxCell id="-iTeWCBVYYt1tYyRLS01-23" value="Lettuce" style="rounded=1;whiteSpace=wrap;html=1;arcSize=50;fillColor=#647687;strokeColor=#314354;fontColor=#ffffff;fontFamily=century gothic;" parent="1" vertex="1">
          <mxGeometry x="-260" y="1400" width="80" height="40" as="geometry" />
        </mxCell>
        <mxCell id="-iTeWCBVYYt1tYyRLS01-50" style="edgeStyle=orthogonalEdgeStyle;rounded=1;orthogonalLoop=1;jettySize=auto;html=1;fontFamily=century gothic;fontSize=15;jumpStyle=gap;" parent="1" source="-iTeWCBVYYt1tYyRLS01-24" target="-iTeWCBVYYt1tYyRLS01-48" edge="1">
          <mxGeometry relative="1" as="geometry">
            <Array as="points">
              <mxPoint x="360" y="220" />
              <mxPoint x="360" y="730" />
            </Array>
          </mxGeometry>
        </mxCell>
        <mxCell id="-iTeWCBVYYt1tYyRLS01-24" value="&lt;div&gt;Gourmet &lt;br&gt;&lt;/div&gt;&lt;div&gt;Pork Patty&lt;/div&gt;" style="rounded=0;whiteSpace=wrap;html=1;fontFamily=century gothic;" parent="1" vertex="1">
          <mxGeometry x="240" y="200" width="80" height="40" as="geometry" />
        </mxCell>
        <mxCell id="-iTeWCBVYYt1tYyRLS01-49" value="Skillet" style="edgeStyle=orthogonalEdgeStyle;rounded=1;orthogonalLoop=1;jettySize=auto;html=1;fontFamily=century gothic;fontSize=11;jumpStyle=gap;" parent="1" source="-iTeWCBVYYt1tYyRLS01-34" target="-iTeWCBVYYt1tYyRLS01-48" edge="1">
          <mxGeometry relative="1" as="geometry">
            <Array as="points">
              <mxPoint x="400" y="740" />
              <mxPoint x="400" y="740" />
            </Array>
          </mxGeometry>
        </mxCell>
        <mxCell id="-iTeWCBVYYt1tYyRLS01-34" value="Brioche" style="rounded=0;whiteSpace=wrap;html=1;fontFamily=century gothic;" parent="1" vertex="1">
          <mxGeometry x="240" y="720" width="80" height="40" as="geometry" />
        </mxCell>
        <mxCell id="-iTeWCBVYYt1tYyRLS01-51" value="" style="edgeStyle=orthogonalEdgeStyle;rounded=1;orthogonalLoop=1;jettySize=auto;html=1;fontFamily=century gothic;fontSize=15;jumpStyle=gap;" parent="1" source="-iTeWCBVYYt1tYyRLS01-42" target="-iTeWCBVYYt1tYyRLS01-48" edge="1">
          <mxGeometry relative="1" as="geometry">
            <Array as="points">
              <mxPoint x="360" y="1100" />
              <mxPoint x="360" y="750" />
            </Array>
          </mxGeometry>
        </mxCell>
        <mxCell id="-iTeWCBVYYt1tYyRLS01-42" value="Fried Onions" style="rounded=0;whiteSpace=wrap;html=1;fontFamily=century gothic;" parent="1" vertex="1">
          <mxGeometry x="240" y="1080" width="80" height="40" as="geometry" />
        </mxCell>
        <mxCell id="-iTeWCBVYYt1tYyRLS01-48" value="&lt;div&gt;Gourmet &lt;br&gt;&lt;/div&gt;&lt;div&gt;Pork &lt;br&gt;&lt;/div&gt;&lt;div&gt;Burger&lt;/div&gt;" style="whiteSpace=wrap;html=1;aspect=fixed;fillColor=#647687;strokeColor=#314354;fontColor=#ffffff;fontFamily=century gothic;fontSize=15;fontStyle=1" parent="1" vertex="1">
          <mxGeometry x="420" y="710" width="80" height="80" as="geometry" />
        </mxCell>
        <mxCell id="-iTeWCBVYYt1tYyRLS01-58" value="Grinder" style="edgeStyle=orthogonalEdgeStyle;rounded=1;orthogonalLoop=1;jettySize=auto;html=1;fontFamily=century gothic;fontSize=11;jumpStyle=gap;" parent="1" source="-iTeWCBVYYt1tYyRLS01-56" target="-iTeWCBVYYt1tYyRLS01-1" edge="1">
          <mxGeometry x="0.2" relative="1" as="geometry">
            <mxPoint as="offset" />
          </mxGeometry>
        </mxCell>
        <mxCell id="-iTeWCBVYYt1tYyRLS01-56" value="Raw Tofacon" style="rounded=0;whiteSpace=wrap;html=1;fontFamily=century gothic;fillColor=#647687;strokeColor=#314354;fontColor=#ffffff;" parent="1" vertex="1">
          <mxGeometry x="-260" y="280" width="80" height="40" as="geometry" />
        </mxCell>
        <mxCell id="02abt6Ju4ip0T6dvX8xv-3" style="edgeStyle=orthogonalEdgeStyle;rounded=1;orthogonalLoop=1;jettySize=auto;html=1;entryX=0;entryY=0;entryDx=0;entryDy=0;" parent="1" source="-iTeWCBVYYt1tYyRLS01-57" target="-iTeWCBVYYt1tYyRLS01-24" edge="1">
          <mxGeometry relative="1" as="geometry">
            <Array as="points">
              <mxPoint x="20" y="60" />
              <mxPoint x="20" y="200" />
            </Array>
          </mxGeometry>
        </mxCell>
        <mxCell id="-iTeWCBVYYt1tYyRLS01-57" value="Spice Leaf" style="rounded=1;whiteSpace=wrap;html=1;arcSize=50;fillColor=#647687;strokeColor=#314354;fontColor=#ffffff;fontFamily=century gothic;" parent="1" vertex="1">
          <mxGeometry x="-260" y="40" width="80" height="40" as="geometry" />
        </mxCell>
        <mxCell id="-iTeWCBVYYt1tYyRLS01-60" value="Grinder" style="edgeStyle=orthogonalEdgeStyle;rounded=1;orthogonalLoop=1;jettySize=auto;html=1;fontFamily=century gothic;fontSize=11;jumpStyle=gap;" parent="1" source="-iTeWCBVYYt1tYyRLS01-114" target="-iTeWCBVYYt1tYyRLS01-3" edge="1">
          <mxGeometry x="0.2" relative="1" as="geometry">
            <mxPoint x="-200" y="220" as="sourcePoint" />
            <mxPoint as="offset" />
          </mxGeometry>
        </mxCell>
        <mxCell id="-iTeWCBVYYt1tYyRLS01-62" value="Craft" style="edgeStyle=orthogonalEdgeStyle;rounded=1;orthogonalLoop=1;jettySize=auto;html=1;fontFamily=century gothic;fontSize=11;jumpStyle=gap;" parent="1" source="-iTeWCBVYYt1tYyRLS01-84" target="-iTeWCBVYYt1tYyRLS01-5" edge="1">
          <mxGeometry x="0.2" relative="1" as="geometry">
            <mxPoint x="-370" y="140" as="sourcePoint" />
            <mxPoint as="offset" />
          </mxGeometry>
        </mxCell>
        <mxCell id="-iTeWCBVYYt1tYyRLS01-69" value="" style="edgeStyle=orthogonalEdgeStyle;rounded=1;orthogonalLoop=1;jettySize=auto;html=1;fontFamily=century gothic;fontSize=11;jumpStyle=gap;" parent="1" source="-iTeWCBVYYt1tYyRLS01-63" target="-iTeWCBVYYt1tYyRLS01-56" edge="1">
          <mxGeometry x="0.75" relative="1" as="geometry">
            <Array as="points">
              <mxPoint x="-350" y="280" />
              <mxPoint x="-350" y="280" />
            </Array>
            <mxPoint as="offset" />
          </mxGeometry>
        </mxCell>
        <mxCell id="-iTeWCBVYYt1tYyRLS01-63" value="Firm Tofu" style="rounded=0;whiteSpace=wrap;html=1;fontFamily=century gothic;" parent="1" vertex="1">
          <mxGeometry x="-440" y="280" width="80" height="40" as="geometry" />
        </mxCell>
        <mxCell id="-iTeWCBVYYt1tYyRLS01-118" style="edgeStyle=orthogonalEdgeStyle;rounded=1;jumpStyle=gap;orthogonalLoop=1;jettySize=auto;html=1;fontFamily=century gothic;fontSize=11;" parent="1" source="-iTeWCBVYYt1tYyRLS01-66" target="-iTeWCBVYYt1tYyRLS01-9" edge="1">
          <mxGeometry relative="1" as="geometry" />
        </mxCell>
        <mxCell id="-iTeWCBVYYt1tYyRLS01-66" value="Flour" style="rounded=0;whiteSpace=wrap;html=1;fontFamily=century gothic;" parent="1" vertex="1">
          <mxGeometry x="-440" y="480" width="80" height="40" as="geometry" />
        </mxCell>
        <mxCell id="-iTeWCBVYYt1tYyRLS01-73" style="edgeStyle=orthogonalEdgeStyle;rounded=1;orthogonalLoop=1;jettySize=auto;html=1;fontFamily=century gothic;fontSize=11;jumpStyle=gap;" parent="1" source="-iTeWCBVYYt1tYyRLS01-67" target="-iTeWCBVYYt1tYyRLS01-56" edge="1">
          <mxGeometry relative="1" as="geometry">
            <Array as="points">
              <mxPoint x="-320" y="970" />
              <mxPoint x="-320" y="310" />
            </Array>
          </mxGeometry>
        </mxCell>
        <mxCell id="-iTeWCBVYYt1tYyRLS01-71" value="" style="edgeStyle=orthogonalEdgeStyle;rounded=1;orthogonalLoop=1;jettySize=auto;html=1;fontFamily=century gothic;fontSize=11;jumpStyle=gap;" parent="1" source="-iTeWCBVYYt1tYyRLS01-68" target="-iTeWCBVYYt1tYyRLS01-56" edge="1">
          <mxGeometry x="0.7949" relative="1" as="geometry">
            <Array as="points">
              <mxPoint x="-340" y="370" />
              <mxPoint x="-340" y="290" />
            </Array>
            <mxPoint as="offset" />
          </mxGeometry>
        </mxCell>
        <mxCell id="-iTeWCBVYYt1tYyRLS01-68" value="Salt" style="rounded=1;whiteSpace=wrap;html=1;arcSize=50;fontFamily=century gothic;" parent="1" vertex="1">
          <mxGeometry x="-440" y="360" width="80" height="40" as="geometry" />
        </mxCell>
        <mxCell id="-iTeWCBVYYt1tYyRLS01-97" value="Pot" style="edgeStyle=orthogonalEdgeStyle;rounded=1;orthogonalLoop=1;jettySize=auto;html=1;fontFamily=century gothic;fontSize=11;jumpStyle=gap;" parent="1" source="-iTeWCBVYYt1tYyRLS01-75" target="-iTeWCBVYYt1tYyRLS01-68" edge="1">
          <mxGeometry x="-0.7333" relative="1" as="geometry">
            <Array as="points">
              <mxPoint x="-470" y="890" />
              <mxPoint x="-470" y="380" />
            </Array>
            <mxPoint as="offset" />
          </mxGeometry>
        </mxCell>
        <mxCell id="-iTeWCBVYYt1tYyRLS01-75" value="Water" style="rounded=1;whiteSpace=wrap;html=1;arcSize=50;fontFamily=century gothic;" parent="1" vertex="1">
          <mxGeometry x="-760" y="880" width="80" height="40" as="geometry" />
        </mxCell>
        <mxCell id="-iTeWCBVYYt1tYyRLS01-76" value="Soybean" style="rounded=1;whiteSpace=wrap;html=1;arcSize=50;fontFamily=century gothic;" parent="1" vertex="1">
          <mxGeometry x="-760" y="560" width="80" height="40" as="geometry" />
        </mxCell>
        <mxCell id="-iTeWCBVYYt1tYyRLS01-77" value="Presser" style="edgeStyle=orthogonalEdgeStyle;rounded=1;orthogonalLoop=1;jettySize=auto;html=1;startSize=0;jumpStyle=gap;fontFamily=century gothic;" parent="1" source="-iTeWCBVYYt1tYyRLS01-76" target="-iTeWCBVYYt1tYyRLS01-79" edge="1">
          <mxGeometry relative="1" as="geometry">
            <mxPoint x="-680" y="620" as="sourcePoint" />
          </mxGeometry>
        </mxCell>
        <mxCell id="-iTeWCBVYYt1tYyRLS01-78" style="edgeStyle=orthogonalEdgeStyle;rounded=1;orthogonalLoop=1;jettySize=auto;html=1;startSize=0;jumpStyle=gap;fontFamily=century gothic;" parent="1" source="-iTeWCBVYYt1tYyRLS01-79" target="-iTeWCBVYYt1tYyRLS01-63" edge="1">
          <mxGeometry relative="1" as="geometry">
            <mxPoint x="-499.9411764705883" y="340" as="targetPoint" />
            <Array as="points">
              <mxPoint x="-480" y="580" />
              <mxPoint x="-480" y="300" />
            </Array>
          </mxGeometry>
        </mxCell>
        <mxCell id="-iTeWCBVYYt1tYyRLS01-79" value="Silken Tofu" style="rounded=0;whiteSpace=wrap;html=1;startSize=0;fontFamily=century gothic;" parent="1" vertex="1">
          <mxGeometry x="-600" y="560" width="80" height="40" as="geometry" />
        </mxCell>
        <mxCell id="-iTeWCBVYYt1tYyRLS01-84" value="Mustard" style="rounded=1;whiteSpace=wrap;html=1;arcSize=50;fontFamily=century gothic;fillColor=#647687;strokeColor=#314354;fontColor=#ffffff;" parent="1" vertex="1">
          <mxGeometry x="-260" y="120" width="80" height="40" as="geometry" />
        </mxCell>
        <mxCell id="02abt6Ju4ip0T6dvX8xv-4" style="edgeStyle=orthogonalEdgeStyle;rounded=1;orthogonalLoop=1;jettySize=auto;html=1;entryX=0;entryY=0.25;entryDx=0;entryDy=0;" parent="1" source="-iTeWCBVYYt1tYyRLS01-5" target="-iTeWCBVYYt1tYyRLS01-24" edge="1">
          <mxGeometry relative="1" as="geometry">
            <Array as="points">
              <mxPoint x="10" y="140" />
              <mxPoint x="10" y="210" />
            </Array>
          </mxGeometry>
        </mxCell>
        <mxCell id="-iTeWCBVYYt1tYyRLS01-5" value="Mustard Seed" style="rounded=0;whiteSpace=wrap;html=1;fontFamily=century gothic;" parent="1" vertex="1">
          <mxGeometry x="-80" y="120" width="80" height="40" as="geometry" />
        </mxCell>
        <mxCell id="-iTeWCBVYYt1tYyRLS01-91" value="Sugar (Honey)" style="rounded=1;whiteSpace=wrap;html=1;arcSize=50;fillColor=#647687;strokeColor=#314354;fontColor=#ffffff;fontFamily=century gothic;" parent="1" vertex="1">
          <mxGeometry x="-260" y="960" width="80" height="40" as="geometry" />
        </mxCell>
        <mxCell id="-iTeWCBVYYt1tYyRLS01-94" value="" style="edgeStyle=orthogonalEdgeStyle;rounded=1;orthogonalLoop=1;jettySize=auto;html=1;fontFamily=century gothic;fontSize=11;jumpStyle=gap;" parent="1" source="-iTeWCBVYYt1tYyRLS01-67" target="-iTeWCBVYYt1tYyRLS01-91" edge="1">
          <mxGeometry x="-0.931" relative="1" as="geometry">
            <mxPoint as="offset" />
          </mxGeometry>
        </mxCell>
        <mxCell id="-iTeWCBVYYt1tYyRLS01-93" value="Sugar Canes" style="rounded=1;whiteSpace=wrap;html=1;arcSize=50;fontFamily=century gothic;" parent="1" vertex="1">
          <mxGeometry x="-760" y="960" width="80" height="40" as="geometry" />
        </mxCell>
        <mxCell id="-iTeWCBVYYt1tYyRLS01-108" style="edgeStyle=orthogonalEdgeStyle;rounded=1;orthogonalLoop=1;jettySize=auto;html=1;fontFamily=century gothic;fontSize=11;jumpStyle=gap;" parent="1" source="-iTeWCBVYYt1tYyRLS01-99" target="-iTeWCBVYYt1tYyRLS01-20" edge="1">
          <mxGeometry relative="1" as="geometry" />
        </mxCell>
        <mxCell id="-iTeWCBVYYt1tYyRLS01-99" value="Onion" style="rounded=1;whiteSpace=wrap;html=1;arcSize=50;fontFamily=century gothic;" parent="1" vertex="1">
          <mxGeometry x="-760" y="1160" width="80" height="40" as="geometry" />
        </mxCell>
        <mxCell id="-iTeWCBVYYt1tYyRLS01-105" value="Presser" style="edgeStyle=orthogonalEdgeStyle;rounded=1;orthogonalLoop=1;jettySize=auto;html=1;fontFamily=century gothic;fontSize=11;jumpStyle=gap;" parent="1" source="-iTeWCBVYYt1tYyRLS01-100" target="-iTeWCBVYYt1tYyRLS01-103" edge="1">
          <mxGeometry relative="1" as="geometry">
            <Array as="points">
              <mxPoint x="-480" y="1250" />
              <mxPoint x="-480" y="1100" />
            </Array>
          </mxGeometry>
        </mxCell>
        <mxCell id="-iTeWCBVYYt1tYyRLS01-109" style="edgeStyle=orthogonalEdgeStyle;rounded=1;orthogonalLoop=1;jettySize=auto;html=1;fontFamily=century gothic;fontSize=11;jumpStyle=gap;" parent="1" source="-iTeWCBVYYt1tYyRLS01-100" target="-iTeWCBVYYt1tYyRLS01-21" edge="1">
          <mxGeometry relative="1" as="geometry" />
        </mxCell>
        <mxCell id="-iTeWCBVYYt1tYyRLS01-100" value="Avocado" style="rounded=1;whiteSpace=wrap;html=1;arcSize=50;fontFamily=century gothic;" parent="1" vertex="1">
          <mxGeometry x="-760" y="1240" width="80" height="40" as="geometry" />
        </mxCell>
        <mxCell id="-iTeWCBVYYt1tYyRLS01-110" style="edgeStyle=orthogonalEdgeStyle;rounded=1;orthogonalLoop=1;jettySize=auto;html=1;fontFamily=century gothic;fontSize=11;jumpStyle=gap;" parent="1" source="-iTeWCBVYYt1tYyRLS01-101" target="-iTeWCBVYYt1tYyRLS01-22" edge="1">
          <mxGeometry relative="1" as="geometry" />
        </mxCell>
        <mxCell id="-iTeWCBVYYt1tYyRLS01-101" value="Tomato" style="rounded=1;whiteSpace=wrap;html=1;arcSize=50;fontFamily=century gothic;" parent="1" vertex="1">
          <mxGeometry x="-760" y="1320" width="80" height="40" as="geometry" />
        </mxCell>
        <mxCell id="-iTeWCBVYYt1tYyRLS01-111" style="edgeStyle=orthogonalEdgeStyle;rounded=1;orthogonalLoop=1;jettySize=auto;html=1;fontFamily=century gothic;fontSize=11;jumpStyle=gap;" parent="1" source="-iTeWCBVYYt1tYyRLS01-102" target="-iTeWCBVYYt1tYyRLS01-23" edge="1">
          <mxGeometry relative="1" as="geometry" />
        </mxCell>
        <mxCell id="-iTeWCBVYYt1tYyRLS01-102" value="Lettuce" style="rounded=1;whiteSpace=wrap;html=1;arcSize=50;fontFamily=century gothic;" parent="1" vertex="1">
          <mxGeometry x="-760" y="1400" width="80" height="40" as="geometry" />
        </mxCell>
        <mxCell id="-iTeWCBVYYt1tYyRLS01-106" style="edgeStyle=orthogonalEdgeStyle;rounded=1;orthogonalLoop=1;jettySize=auto;html=1;fontFamily=century gothic;fontSize=11;jumpStyle=gap;" parent="1" source="-iTeWCBVYYt1tYyRLS01-103" target="-iTeWCBVYYt1tYyRLS01-16" edge="1">
          <mxGeometry relative="1" as="geometry" />
        </mxCell>
        <mxCell id="-iTeWCBVYYt1tYyRLS01-107" style="edgeStyle=orthogonalEdgeStyle;rounded=1;orthogonalLoop=1;jettySize=auto;html=1;fontFamily=century gothic;fontSize=11;jumpStyle=gap;" parent="1" source="-iTeWCBVYYt1tYyRLS01-103" target="-iTeWCBVYYt1tYyRLS01-56" edge="1">
          <mxGeometry relative="1" as="geometry">
            <Array as="points">
              <mxPoint x="-310" y="1090" />
              <mxPoint x="-310" y="320" />
            </Array>
          </mxGeometry>
        </mxCell>
        <mxCell id="-iTeWCBVYYt1tYyRLS01-103" value="Cooking Oil" style="rounded=0;whiteSpace=wrap;html=1;fontFamily=century gothic;" parent="1" vertex="1">
          <mxGeometry x="-440" y="1080" width="80" height="40" as="geometry" />
        </mxCell>
        <mxCell id="-iTeWCBVYYt1tYyRLS01-114" value="Peppercorn" style="rounded=1;whiteSpace=wrap;html=1;arcSize=50;fontFamily=century gothic;fillColor=#647687;strokeColor=#314354;fontColor=#ffffff;" parent="1" vertex="1">
          <mxGeometry x="-260" y="200" width="80" height="40" as="geometry" />
        </mxCell>
        <mxCell id="-iTeWCBVYYt1tYyRLS01-67" value="Sugar" style="rounded=0;whiteSpace=wrap;html=1;fontFamily=century gothic;" parent="1" vertex="1">
          <mxGeometry x="-440" y="960" width="80" height="40" as="geometry" />
        </mxCell>
        <mxCell id="-iTeWCBVYYt1tYyRLS01-115" value="Presser" style="edgeStyle=orthogonalEdgeStyle;rounded=1;orthogonalLoop=1;jettySize=auto;html=1;fontFamily=century gothic;fontSize=11;jumpStyle=gap;" parent="1" source="-iTeWCBVYYt1tYyRLS01-93" target="-iTeWCBVYYt1tYyRLS01-67" edge="1">
          <mxGeometry relative="1" as="geometry">
            <mxPoint x="-680" y="980" as="sourcePoint" />
            <mxPoint x="-100" y="980" as="targetPoint" />
            <mxPoint as="offset" />
          </mxGeometry>
        </mxCell>
        <mxCell id="-iTeWCBVYYt1tYyRLS01-117" style="edgeStyle=orthogonalEdgeStyle;rounded=1;jumpStyle=gap;orthogonalLoop=1;jettySize=auto;html=1;fontFamily=century gothic;fontSize=11;" parent="1" source="-iTeWCBVYYt1tYyRLS01-116" target="-iTeWCBVYYt1tYyRLS01-66" edge="1">
          <mxGeometry relative="1" as="geometry" />
        </mxCell>
        <mxCell id="-iTeWCBVYYt1tYyRLS01-116" value="Wheat" style="rounded=1;whiteSpace=wrap;html=1;arcSize=50;fontFamily=century gothic;" parent="1" vertex="1">
          <mxGeometry x="-760" y="480" width="80" height="40" as="geometry" />
        </mxCell>
        <mxCell id="-iTeWCBVYYt1tYyRLS01-72" value="Cutting Board" style="edgeStyle=orthogonalEdgeStyle;rounded=1;orthogonalLoop=1;jettySize=auto;html=1;fontFamily=century gothic;fontSize=11;jumpStyle=gap;" parent="1" source="-iTeWCBVYYt1tYyRLS01-66" target="-iTeWCBVYYt1tYyRLS01-56" edge="1">
          <mxGeometry x="0.7037" relative="1" as="geometry">
            <Array as="points">
              <mxPoint x="-330" y="490" />
              <mxPoint x="-330" y="300" />
            </Array>
            <mxPoint as="offset" />
          </mxGeometry>
        </mxCell>
        <mxCell id="02abt6Ju4ip0T6dvX8xv-9" style="edgeStyle=orthogonalEdgeStyle;rounded=1;orthogonalLoop=1;jettySize=auto;html=1;" parent="1" source="02abt6Ju4ip0T6dvX8xv-1" target="-iTeWCBVYYt1tYyRLS01-57" edge="1">
          <mxGeometry relative="1" as="geometry" />
        </mxCell>
        <mxCell id="02abt6Ju4ip0T6dvX8xv-1" value="Spice Leaf" style="rounded=1;whiteSpace=wrap;html=1;arcSize=50;fontFamily=century gothic;" parent="1" vertex="1">
          <mxGeometry x="-760" y="40" width="80" height="40" as="geometry" />
        </mxCell>
        <mxCell id="02abt6Ju4ip0T6dvX8xv-8" style="edgeStyle=orthogonalEdgeStyle;rounded=1;orthogonalLoop=1;jettySize=auto;html=1;" parent="1" source="02abt6Ju4ip0T6dvX8xv-2" target="-iTeWCBVYYt1tYyRLS01-84" edge="1">
          <mxGeometry relative="1" as="geometry" />
        </mxCell>
        <mxCell id="02abt6Ju4ip0T6dvX8xv-2" value="Mustard" style="rounded=1;whiteSpace=wrap;html=1;arcSize=50;fontFamily=century gothic;" parent="1" vertex="1">
          <mxGeometry x="-760" y="120" width="80" height="40" as="geometry" />
        </mxCell>
        <mxCell id="-iTeWCBVYYt1tYyRLS01-82" value="Presser" style="edgeStyle=orthogonalEdgeStyle;rounded=1;orthogonalLoop=1;jettySize=auto;html=1;fontFamily=century gothic;fontSize=11;jumpStyle=gap;" parent="1" source="-iTeWCBVYYt1tYyRLS01-79" target="-iTeWCBVYYt1tYyRLS01-13" edge="1">
          <mxGeometry x="-0.9394" relative="1" as="geometry">
            <mxPoint x="-440" y="620" as="targetPoint" />
            <Array as="points">
              <mxPoint x="-480" y="580" />
              <mxPoint x="-480" y="820" />
            </Array>
            <mxPoint as="offset" />
          </mxGeometry>
        </mxCell>
        <mxCell id="j_rF-0FTTqqNN7fK2HbE-2" style="edgeStyle=orthogonalEdgeStyle;rounded=1;jumpStyle=gap;orthogonalLoop=1;jettySize=auto;html=1;" edge="1" parent="1" source="j_rF-0FTTqqNN7fK2HbE-1" target="-iTeWCBVYYt1tYyRLS01-114">
          <mxGeometry relative="1" as="geometry" />
        </mxCell>
        <mxCell id="j_rF-0FTTqqNN7fK2HbE-1" value="Peppercorn" style="rounded=1;whiteSpace=wrap;html=1;arcSize=50;fontFamily=century gothic;" vertex="1" parent="1">
          <mxGeometry x="-760" y="200" width="80" height="40" as="geometry" />
        </mxCell>
      </root>
    </mxGraphModel>
  </diagram>
  <diagram id="g7NEJyON0BGL1QXHlyZL" name="Page-2">
    <mxGraphModel dx="2000" dy="1191" grid="1" gridSize="10" guides="1" tooltips="1" connect="1" arrows="1" fold="1" page="1" pageScale="1" pageWidth="827" pageHeight="1169" math="0" shadow="0">
      <root>
        <mxCell id="rMS9-DYgruec4kt0ekgt-0" />
        <mxCell id="rMS9-DYgruec4kt0ekgt-1" parent="rMS9-DYgruec4kt0ekgt-0" />
        <mxCell id="XfQLiQK9EUsnnmP97lrz-0" value="Craft" style="swimlane;fontStyle=0;childLayout=stackLayout;horizontal=1;startSize=26;horizontalStack=0;resizeParent=1;resizeParentMax=0;resizeLast=0;collapsible=1;marginBottom=0;align=center;fontSize=14;" vertex="1" parent="rMS9-DYgruec4kt0ekgt-1">
          <mxGeometry x="280" y="200" width="120" height="236" as="geometry" />
        </mxCell>
        <mxCell id="XfQLiQK9EUsnnmP97lrz-1" value="Spice Leaf" style="text;strokeColor=none;fillColor=none;spacingLeft=4;spacingRight=4;overflow=hidden;rotatable=0;points=[[0,0.5],[1,0.5]];portConstraint=eastwest;fontSize=12;" vertex="1" parent="XfQLiQK9EUsnnmP97lrz-0">
          <mxGeometry y="26" width="120" height="30" as="geometry" />
        </mxCell>
        <mxCell id="XfQLiQK9EUsnnmP97lrz-2" value="Mustard Seed" style="text;strokeColor=none;fillColor=none;spacingLeft=4;spacingRight=4;overflow=hidden;rotatable=0;points=[[0,0.5],[1,0.5]];portConstraint=eastwest;fontSize=12;" vertex="1" parent="XfQLiQK9EUsnnmP97lrz-0">
          <mxGeometry y="56" width="120" height="30" as="geometry" />
        </mxCell>
        <mxCell id="XfQLiQK9EUsnnmP97lrz-3" value="Black Pepper" style="text;strokeColor=none;fillColor=none;spacingLeft=4;spacingRight=4;overflow=hidden;rotatable=0;points=[[0,0.5],[1,0.5]];portConstraint=eastwest;fontSize=12;" vertex="1" parent="XfQLiQK9EUsnnmP97lrz-0">
          <mxGeometry y="86" width="120" height="30" as="geometry" />
        </mxCell>
        <mxCell id="XfQLiQK9EUsnnmP97lrz-4" value="Ground Pork" style="text;strokeColor=none;fillColor=none;spacingLeft=4;spacingRight=4;overflow=hidden;rotatable=0;points=[[0,0.5],[1,0.5]];portConstraint=eastwest;fontSize=12;" vertex="1" parent="XfQLiQK9EUsnnmP97lrz-0">
          <mxGeometry y="116" width="120" height="30" as="geometry" />
        </mxCell>
        <mxCell id="XfQLiQK9EUsnnmP97lrz-5" value="Salt" style="text;strokeColor=none;fillColor=none;spacingLeft=4;spacingRight=4;overflow=hidden;rotatable=0;points=[[0,0.5],[1,0.5]];portConstraint=eastwest;fontSize=12;" vertex="1" parent="XfQLiQK9EUsnnmP97lrz-0">
          <mxGeometry y="146" width="120" height="30" as="geometry" />
        </mxCell>
        <mxCell id="ZTLr7SD9wIRXuXv6N4hA-0" value="Mixing Bowl" style="text;spacingLeft=4;spacingRight=4;overflow=hidden;rotatable=0;points=[[0,0.5],[1,0.5]];portConstraint=eastwest;fontSize=12;fontColor=#333333;" vertex="1" parent="XfQLiQK9EUsnnmP97lrz-0">
          <mxGeometry y="176" width="120" height="30" as="geometry" />
        </mxCell>
        <mxCell id="ZTLr7SD9wIRXuXv6N4hA-1" value="Gourmet Pork Patty" style="text;spacingLeft=4;spacingRight=4;overflow=hidden;rotatable=0;points=[[0,0.5],[1,0.5]];portConstraint=eastwest;fontSize=12;strokeColor=#000000;" vertex="1" parent="XfQLiQK9EUsnnmP97lrz-0">
          <mxGeometry y="206" width="120" height="30" as="geometry" />
        </mxCell>
        <mxCell id="ZTLr7SD9wIRXuXv6N4hA-2" value="Craft" style="swimlane;fontStyle=0;childLayout=stackLayout;horizontal=1;startSize=26;horizontalStack=0;resizeParent=1;resizeParentMax=0;resizeLast=0;collapsible=1;marginBottom=0;align=center;fontSize=14;" vertex="1" parent="rMS9-DYgruec4kt0ekgt-1">
          <mxGeometry x="280" y="600" width="120" height="296" as="geometry" />
        </mxCell>
        <mxCell id="ZTLr7SD9wIRXuXv6N4hA-3" value="Flour" style="text;strokeColor=none;fillColor=none;spacingLeft=4;spacingRight=4;overflow=hidden;rotatable=0;points=[[0,0.5],[1,0.5]];portConstraint=eastwest;fontSize=12;" vertex="1" parent="ZTLr7SD9wIRXuXv6N4hA-2">
          <mxGeometry y="26" width="120" height="30" as="geometry" />
        </mxCell>
        <mxCell id="ZTLr7SD9wIRXuXv6N4hA-4" value="Butter" style="text;strokeColor=none;fillColor=none;spacingLeft=4;spacingRight=4;overflow=hidden;rotatable=0;points=[[0,0.5],[1,0.5]];portConstraint=eastwest;fontSize=12;" vertex="1" parent="ZTLr7SD9wIRXuXv6N4hA-2">
          <mxGeometry y="56" width="120" height="30" as="geometry" />
        </mxCell>
        <mxCell id="ZTLr7SD9wIRXuXv6N4hA-5" value="Heavy Cream" style="text;strokeColor=none;fillColor=none;spacingLeft=4;spacingRight=4;overflow=hidden;rotatable=0;points=[[0,0.5],[1,0.5]];portConstraint=eastwest;fontSize=12;" vertex="1" parent="ZTLr7SD9wIRXuXv6N4hA-2">
          <mxGeometry y="86" width="120" height="30" as="geometry" />
        </mxCell>
        <mxCell id="ZTLr7SD9wIRXuXv6N4hA-6" value="Milk" style="text;strokeColor=none;fillColor=none;spacingLeft=4;spacingRight=4;overflow=hidden;rotatable=0;points=[[0,0.5],[1,0.5]];portConstraint=eastwest;fontSize=12;" vertex="1" parent="ZTLr7SD9wIRXuXv6N4hA-2">
          <mxGeometry y="116" width="120" height="30" as="geometry" />
        </mxCell>
        <mxCell id="ZTLr7SD9wIRXuXv6N4hA-7" value="Water" style="text;strokeColor=none;fillColor=none;spacingLeft=4;spacingRight=4;overflow=hidden;rotatable=0;points=[[0,0.5],[1,0.5]];portConstraint=eastwest;fontSize=12;" vertex="1" parent="ZTLr7SD9wIRXuXv6N4hA-2">
          <mxGeometry y="146" width="120" height="30" as="geometry" />
        </mxCell>
        <mxCell id="ZTLr7SD9wIRXuXv6N4hA-8" value="Egg" style="text;spacingLeft=4;spacingRight=4;overflow=hidden;rotatable=0;points=[[0,0.5],[1,0.5]];portConstraint=eastwest;fontSize=12;fontColor=#333333;" vertex="1" parent="ZTLr7SD9wIRXuXv6N4hA-2">
          <mxGeometry y="176" width="120" height="30" as="geometry" />
        </mxCell>
        <mxCell id="ZTLr7SD9wIRXuXv6N4hA-9" value="Sugar" style="text;spacingLeft=4;spacingRight=4;overflow=hidden;rotatable=0;points=[[0,0.5],[1,0.5]];portConstraint=eastwest;fontSize=12;" vertex="1" parent="ZTLr7SD9wIRXuXv6N4hA-2">
          <mxGeometry y="206" width="120" height="30" as="geometry" />
        </mxCell>
        <mxCell id="3Ct8GEK-RbUj4D-EAivg-0" value="Bakeware" style="text;spacingLeft=4;spacingRight=4;overflow=hidden;rotatable=0;points=[[0,0.5],[1,0.5]];portConstraint=eastwest;fontSize=12;" vertex="1" parent="ZTLr7SD9wIRXuXv6N4hA-2">
          <mxGeometry y="236" width="120" height="30" as="geometry" />
        </mxCell>
        <mxCell id="3Ct8GEK-RbUj4D-EAivg-1" value="Brioche" style="text;spacingLeft=4;spacingRight=4;overflow=hidden;rotatable=0;points=[[0,0.5],[1,0.5]];portConstraint=eastwest;fontSize=12;strokeColor=#000000;" vertex="1" parent="ZTLr7SD9wIRXuXv6N4hA-2">
          <mxGeometry y="266" width="120" height="30" as="geometry" />
        </mxCell>
      </root>
    </mxGraphModel>
  </diagram>
</mxfile>
